Joe Bonamassa - Live from The Royal Albert Hall [BDRip-720p-Mkv-Eng-Dts][Nautilus-Bt]



General
Complete name                    : C:\Joe Bonamassa - Live from The Royal Albert Hall [BDRip-720p-Dts][RiP By MaX].mkv
Format                           : Matroska
File size                        : 4.37 GiB
Duration                         : 2h 12mn
Overall bit rate                 : 4 741 Kbps
Encoded date                     : UTC 2010-12-12 13:51:23
Writing application              : mkvmerge v4.4.0 ('Die Wiederkehr') built on Oct 31 2010 21:52:48
Writing library                  : libebml v1.0.0 + libmatroska v1.0.0

Video
ID                               : 1
Format                           : AVC
Format/Info                      : Advanced Video Codec
Format profile                   : High@L4.1
Format settings, CABAC           : Yes
Format settings, ReFrames        : 5 frames
Format settings, GOP             : M=4, N=32
Muxing mode                      : Container profile=Unknown@4.1
Codec ID                         : V_MPEG4/ISO/AVC
Duration                         : 2h 12mn
Bit rate                         : 3 987 Kbps
Width                            : 1 280 pixels
Height                           : 716 pixels
Display aspect ratio             : 16:9
Frame rate                       : 23.976 fps
Color space                      : YUV
Chroma subsampling               : 4:2:0
Bit depth                        : 8 bits
Scan type                        : Progressive
Bits/(Pixel*Frame)               : 0.181
Stream size                      : 3.59 GiB (82%)
Title                            : Joe Bonamassa - Live from The Royal Albert Hall [BDRip 720p][RiP By MaX]
Writing library                  : x264 core 110 r1820 fdcf2ae
Encoding settings                : cabac=1 / ref=5 / deblock=1:1:0 / analyse=0x3:0x133 / me=hex / subme=7 / psy=1 / psy_rd=1.00:0.00 / mixed_ref=1 / me_range=16 / chroma_me=1 / trellis=1 / 8x8dct=1 / cqm=0 / deadzone=21,11 / fast_pskip=0 / chroma_qp_offset=-2 / threads=6 / sliced_threads=0 / nr=0 / decimate=1 / interlaced=0 / constrained_intra=0 / bframes=3 / b_pyramid=2 / b_adapt=2 / b_bias=0 / direct=3 / weightb=1 / open_gop=0 / weightp=1 / keyint=240 / keyint_min=23 / scenecut=40 / intra_refresh=0 / rc_lookahead=40 / rc=2pass / mbtree=1 / bitrate=3987 / ratetol=1.0 / qcomp=0.60 / qpmin=10 / qpmax=51 / qpstep=4 / cplxblur=20.0 / qblur=0.5 / ip_ratio=1.40 / aq=1:1.00
Language                         : Italian

Audio
ID                               : 2
Format                           : DTS
Format/Info                      : Digital Theater Systems
Codec ID                         : A_DTS
Duration                         : 2h 12mn
Bit rate mode                    : Constant
Bit rate                         : 755 Kbps
Channel(s)                       : 6 channels
Channel positions                : Front: L C R, Side: L R, LFE
Sampling rate                    : 48.0 KHz
Bit depth                        : 24 bits
Stream size                      : 713 MiB (16%)
Title                            : Eng Dts 5.1

Menu
00:00:00.000                     : :The Road to Royal Albert Hall
00:02:39.826                     : :Django
00:06:07.576                     : :The Ballad Of John Henry
00:12:55.566                     : :So It's Like That
00:15:51.784                     : :Last Kiss
00:23:09.638                     : :So Many Roads
00:29:31.103                     : :Stop!
00:35:13.320                     : :Introducing Eric Clapton
00:36:32.065                     : :Further On Up The Road
00:42:10.528                     : :High Water Everywhere
00:47:18.252                     : :Sloe Gin
00:55:42.089                     : :Intermission
00:56:04.403                     : :"I first met B.B. King ..."
00:57:24.399                     : :Lonesome Road Blues
01:02:00.258                     : :Happier Times
01:08:52.211                     : :Introducing Paul Jones
01:09:52.313                     : :Your Funeral, My Trial
01:14:09.153                     : :Blues Deluxe
01:23:24.958                     : :Story Of A Quarryman
01:28:43.652                     : :The Great Flood
01:36:49.429                     : :Just Got Paid
01:48:16.907                     : :Mountain Time
01:59:09.851                     : :Asking Around For You
02:10:11.429                     : :Credits